inDegrees=no
num_controls=7
num_derivatives=13
num_iterations=139
num_multipliers=7
num_parameters=0
num_slacks=7
num_states=26
objective=5.227294
objective_accelerations=0.485959
objective_balance=0.054310
objective_effort=0.244414
objective_height=4.356729
objective_ligament=0.085882
solver_duration=1540.021225
status=Solve_Succeeded
success=true
DataType=double
version=3
OpenSimVersion=4.4-2022-07-23-0e9fedc
endheader
time	/jointset/ground_pelvis/pelvis_tilt/value	/jointset/ground_pelvis/pelvis_tx/value	/jointset/ground_pelvis/pelvis_ty/value	/jointset/hip_l/hip_flexion_l/value	/jointset/hip_l/hip_adduction_l/value	/jointset/hip_l/hip_rotation_l/value	/jointset/back/lumbar_extension/value	/jointset/patellofemoral_l/patellar_flexion_l/value	/jointset/knee_l/knee_flexion_l/value	/jointset/knee_l/knee_adduction_l/value	/jointset/knee_l/knee_rotation_l/value	/jointset/ankle_l/ankle_angle_l/value	/jointset/subtalar_l/subtalar_angle_l/value	/jointset/ground_pelvis/pelvis_tilt/speed	/jointset/ground_pelvis/pelvis_tx/speed	/jointset/ground_pelvis/pelvis_ty/speed	/jointset/hip_l/hip_flexion_l/speed	/jointset/hip_l/hip_adduction_l/speed	/jointset/hip_l/hip_rotation_l/speed	/jointset/back/lumbar_extension/speed	/jointset/patellofemoral_l/patellar_flexion_l/speed	/jointset/knee_l/knee_flexion_l/speed	/jointset/knee_l/knee_adduction_l/speed	/jointset/knee_l/knee_rotation_l/speed	/jointset/ankle_l/ankle_angle_l/speed	/jointset/subtalar_l/subtalar_angle_l/speed	/forceset/tau_hip_flexion_l	/forceset/tau_hip_adduction_l	/forceset/tau_hip_rotation_l	/forceset/tau_knee_flexion_l	/forceset/tau_ankle_angle_l	/forceset/tau_subtalar_angle_l	/forceset/tau_lumbar_extension	lambda_cid13_p0	lambda_cid13_p1	lambda_cid13_p2	lambda_cid13_p3	lambda_cid13_p4	lambda_cid13_p5	lambda_cid14_p0	/jointset/ground_pelvis/pelvis_tilt/accel	/jointset/ground_pelvis/pelvis_tx/accel	/jointset/ground_pelvis/pelvis_ty/accel	/jointset/hip_l/hip_flexion_l/accel	/jointset/hip_l/hip_adduction_l/accel	/jointset/hip_l/hip_rotation_l/accel	/jointset/back/lumbar_extension/accel	/jointset/patellofemoral_l/patellar_flexion_l/accel	/jointset/knee_l/knee_flexion_l/accel	/jointset/knee_l/knee_adduction_l/accel	/jointset/knee_l/knee_rotation_l/accel	/jointset/ankle_l/ankle_angle_l/accel	/jointset/subtalar_l/subtalar_angle_l/accel	gamma_cid13_p0	gamma_cid13_p1	gamma_cid13_p2	gamma_cid13_p3	gamma_cid13_p4	gamma_cid13_p5	gamma_cid14_p0
0	-0.04478744624594618	0.07124334934717261	0.8961656098438541	0.1955292361009247	-0.3196937309427964	-0.5285150968522115	-0.137903700187828	0.07015350928392801	0.07015350928391206	-0.1745329019434161	-0.160738228207652	-0.06701017130107029	0.006812453061629369	0	0	0	0	0	0	0	0	0	0	0	0	0	0.106731205185788	-0.1023270401890874	-0.03829712678755171	-0.2387332933345978	0.2016674399280919	-0.02372004574018213	-0.05061830755065275	28.17170143468538	0.0517757421785093	5.729325889011753	-2.393445641555668	-520.387603875159	-79.99635170259123	-41.14204300322558	-4.429769429561053	-1.708538922428964	-0.8559427459772447	10.96335864861914	-1.897099760543198	2.927070698334607	-2.685773785902288	7.800376696308205	7.800376696308248	0.2644495771718918	-0.3699429093743844	1.250087069908603	-1.402172369532517	-2.504290390258151e-08	7.603881309871096e-08	7.142626890668991e-08	1.073789059458802e-08	-1.75393871593569e-08	-6.716651561775602e-09	-6.32859841635445e-09
0.01	-0.045000019991556	0.07115889917424809	0.8961239879456725	0.1960604276518194	-0.3197871548970121	-0.5283683797820975	-0.1380429795654062	0.07053226657139396	0.07053226657134744	-0.174522576232443	-0.160752071023849	-0.06695129681006182	0.00674190039262803	-0.04231356546407793	-0.01682925769582795	-0.00829682497243993	0.1057833853341783	-0.01859992641852083	0.0292295180078418	-0.02764938780753023	0.07542658137271249	0.07542658137271213	0.002055134347870575	-0.002747305943718483	0.01171027170189542	-0.01405310100295453	0.1022883960705155	-0.1046670768555628	-0.03734056141482225	-0.232582319877489	0.191225759190645	-0.01692265865325529	-0.04693192728433338	25.06470620218329	-2.255637501171043	5.982189659116539	-1.309810241065436	-521.0360553225756	-84.82873403425155	-41.14939468702728	-4.101980536683151	-1.661000513587268	-0.812422681177897	10.31758138218595	-1.828725221514429	2.903800168957092	-2.773548120835323	7.36506870595111	7.365068705950952	0.1745642675165256	-0.2239288829331998	1.12180270270334	-1.398284051420781	-5.137599881884842e-08	9.604777592128099e-08	1.131991154702752e-07	3.073354444056571e-08	-1.550851444885813e-07	-1.929734702130962e-08	-1.197047469818381e-08
0.02	-0.04562969547819337	0.07090798016027788	0.8960002237361082	0.1976358036373128	-0.3200640353432143	-0.5279327859685136	-0.1384525581895931	0.07165554364220478	0.07165554364220268	-0.1744919953971762	-0.1607927477887343	-0.06677725850556018	0.006532535696448283	-0.08342034820217908	-0.03329376820913608	-0.0164284622765304	0.2088368869230862	-0.03669129839736408	0.05777534869360386	-0.05405984932124049	0.1489039566733641	0.1489039566733633	0.004051024852612094	-0.005366789729945683	0.02303276269871964	-0.02776240543567155	0.09784558695527197	-0.1070071135220606	-0.03638399604183206	-0.2264313464203192	0.1807840784532483	-0.01012527156632774	-0.04324554701804064	22.0051513484272	-4.571595980136986	6.2366898643251	-0.3227497762528923	-520.9747715767576	-89.5266069032478	-41.17106784080282	-4.188412884365166	-1.635589485925489	-0.822905212307351	10.4173818995651	-1.795388872607697	2.790333233918652	-2.437988527137919	7.410535481896115	7.410535481896123	0.2526008085460626	-0.3443784778762439	1.172530928893809	-1.33341305548534	-7.770909373511532e-08	1.16056738743851e-07	1.549719620338605e-07	5.072919828654339e-08	-2.926309018178056e-07	-3.187804248084364e-08	-1.761235098001317e-08
0.03	-0.04666487731901239	0.07049444375622262	0.8957957878943253	0.2002285681548619	-0.3205191107805293	-0.5272153138269169	-0.139119193591113	0.07350404050608217	0.07350404050612465	-0.1744414955516074	-0.1608591724296378	-0.06649161661701859	0.006188157471578502	-0.123414754686926	-0.04933029117202881	-0.02444291575564008	0.309233931573892	-0.0542210330739359	0.08560062454458245	-0.07902420707597467	0.2204500057857355	0.2204500057857387	0.006046818706342	-0.00788993899197598	0.03404908327310903	-0.04102700352873236	0.09303888175970544	-0.1011726191679331	-0.03554151821904797	-0.2210637525669729	0.1757022341061818	-0.01098722396797584	-0.03926566198806847	20.3718843628121	-4.018556062456195	6.27105837769489	0.3029620349871849	-521.0215063872819	-87.51375858784753	-41.20628132515193	-3.874774629490199	-1.575190261724753	-0.7884059489720062	9.778538347174699	-1.716373153289064	2.760836586561328	-2.489205812531951	6.974831623211876	6.974831623212459	0.1727844043202945	-0.2020343833199348	1.059199210992428	-1.310083073924345	-9.935186222320003e-08	1.330340130426987e-07	1.863234518620209e-07	6.883469335214109e-08	-4.055240587639534e-07	-4.287320753520223e-08	-2.140793885781327e-08
0.04	-0.04809396724447909	0.06992304081048596	0.8955116694111018	0.2038108376387591	-0.3211464050422297	-0.5262231465616172	-0.1400281818527573	0.07605763626059314	0.07605763626059174	-0.1743710946212924	-0.1609499788096709	-0.06609720820487731	0.005713713288236507	-0.1622019651300413	-0.0648670765454134	-0.03236499056469158	0.4067378801981451	-0.07113506327479126	0.1127143734305184	-0.1025304213462472	0.2899237347902804	0.2899237347902883	0.008031241781415906	-0.01024313757215642	0.04478606741873248	-0.05377559713011699	0.08823217656390718	-0.09533812481386213	-0.03469904039677393	-0.2156961587136514	0.1706203897590678	-0.01184917636970521	-0.0352857769582193	18.78234860119274	-3.471891486640656	6.304980258276135	0.837180834290393	-520.422763311385	-85.37335843099557	-41.25405400464973	-3.946973676038358	-1.535641968024353	-0.8044294782957074	9.83876269425461	-1.672247977464388	2.648027840910108	-2.146359830245253	6.996071460330911	6.99607146033103	0.2503266528149275	-0.3103883415063925	1.116663643140084	-1.23021215715038	-1.208979229498789e-07	1.499487782998202e-07	2.174600683554304e-07	8.690121607175157e-08	-5.17908914671275e-07	-5.38356812410005e-08	-2.516545893346845e-08
0.05	-0.04990552935817599	0.06919877069313049	0.8951485910722675	0.2083548092037598	-0.3219397696932832	-0.5249634988424134	-0.1411645837808345	0.07929628215432183	0.07929628215429402	-0.1742807674570218	-0.1610638164737397	-0.06559656904762298	0.005114491485032367	-0.1999149649916072	-0.07990061746166859	-0.04024739761577795	0.5015853009534281	-0.08743184729828901	0.1390947943609787	-0.1245300022054943	0.3574651429297952	0.357465142929808	0.01002420825735652	-0.01249988741293546	0.05529780242729799	-0.0659780794065678	0.08343071107124549	-0.09209626315701949	-0.03390094791432732	-0.2113019271242745	0.1655103575986049	-0.01066024400867519	-0.03136924259471592	17.25463573736518	-3.75338623048228	6.387132489682392	1.176113835639962	-519.8941680353204	-85.09917018185288	-41.31316922427199	-3.654150285370342	-1.474243208937128	-0.7797588704951275	9.23704255571306	-1.592515859494394	2.61496425976929	-2.193762903069292	6.582135401094878	6.582135401095488	0.1723303213032618	-0.1796146943206459	1.011827853864272	-1.20171087123503	-1.366840065700562e-07	1.586251578846284e-07	2.427308930934183e-07	9.997375750130045e-08	-5.970053973449874e-07	-6.375773058239592e-08	-2.839153211467046e-08
0.06	-0.05208835889932834	0.06832675855550858	0.8947067661525283	0.2138331171342024	-0.3228929266335118	-0.5234436639057649	-0.1425143826553658	0.08320013411147936	0.08320013411147803	-0.1741708008927315	-0.1611994809140539	-0.06499213265545346	0.004395955937395135	-0.2364554506193024	-0.09441548059870153	-0.04811430674565848	0.5936051532906166	-0.1030935211098683	0.1647518169176465	-0.1452098106368465	0.4229649474826392	0.4229649474826565	0.01195912178607753	-0.01460849281199548	0.06554551440184073	-0.07763834601672936	0.07862924557845534	-0.08885440150020638	-0.0331028554316122	-0.206907695534967	0.1604003254381281	-0.009471311647687556	-0.02745270823130033	15.76577986394458	-4.040044007675971	6.468234593335274	1.43159997031547	-518.7859980599665	-84.70865023687121	-41.38229726160907	-3.712470829263769	-1.43190641218039	-0.8013298940545333	9.273249010635713	-1.545225935080666	2.503348166151582	-1.882405344665965	6.587750742996827	6.58775074299684	0.2387160633710874	-0.2807594531627087	1.063859036335003	-1.121769023892794	-1.522275648383808e-07	1.669546580727076e-07	2.677547371259149e-07	1.128360260344257e-07	-6.747002643036003e-07	-7.363597258213226e-08	-3.159522858452708e-08
